<svg xmlns="http://www.w3.org/2000/svg" xmlns:xlink="http://www.w3.org/1999/xlink" width="1200" zoomAndPan="magnify" viewBox="0 0 900 899.99999" height="1200" preserveAspectRatio="xMidYMid meet" version="1.2"><defs/><g id="dff8a57c90"><rect x="0" width="900" y="0" height="899.99999" style="fill:#ffffff;fill-opacity:1;stroke:none;"/><rect x="0" width="900" y="0" height="899.99999" style="fill:#d4f225;fill-opacity:1;stroke:none;"/><g style="fill:#524c4c;fill-opacity:1;"><g transform="translate(265.456426, 520.932478)"><path style="stroke:none" d="M 39.078125 168.921875 C 21.835938 168.921875 8.625 164.609375 -0.5625 155.984375 C -9.757812 147.367188 -14.359375 135.59375 -14.359375 120.65625 C -14.359375 103.425781 -9.953125 89.347656 -1.140625 78.421875 C 7.660156 67.503906 19.335938 58.023438 33.890625 49.984375 C 48.453125 41.941406 65.304688 34.664062 84.453125 28.15625 C 103.609375 21.644531 123.53125 14.175781 144.21875 5.75 L 168.921875 -56.890625 C 151.679688 -36.585938 134.539062 -21.265625 117.5 -10.921875 C 100.457031 -0.578125 83.316406 4.59375 66.078125 4.59375 C 49.222656 4.59375 35.523438 -0.382812 24.984375 -10.34375 C 14.453125 -20.300781 9.1875 -34.28125 9.1875 -52.28125 C 9.1875 -66.070312 12.15625 -80.722656 18.09375 -96.234375 C 24.03125 -111.753906 31.976562 -127.078125 41.9375 -142.203125 C 51.90625 -157.335938 63.492188 -171.800781 76.703125 -185.59375 C 89.921875 -199.382812 103.710938 -211.445312 118.078125 -221.78125 C 132.441406 -232.125 147.09375 -240.359375 162.03125 -246.484375 C 176.96875 -252.617188 191.140625 -255.6875 204.546875 -255.6875 C 219.109375 -255.6875 231.460938 -252.238281 241.609375 -245.34375 C 251.765625 -238.445312 260.285156 -230.019531 267.171875 -220.0625 L 227.53125 -198.796875 C 224.46875 -202.628906 220.734375 -205.789062 216.328125 -208.28125 C 211.921875 -210.769531 206.078125 -212.015625 198.796875 -212.015625 C 190.367188 -212.015625 180.984375 -209.425781 170.640625 -204.25 C 160.304688 -199.082031 149.867188 -192.191406 139.328125 -183.578125 C 128.796875 -174.960938 118.550781 -165.195312 108.59375 -154.28125 C 98.632812 -143.363281 89.726562 -132.347656 81.875 -121.234375 C 74.019531 -110.128906 67.796875 -99.304688 63.203125 -88.765625 C 58.609375 -78.234375 56.3125 -69.140625 56.3125 -61.484375 C 56.3125 -54.972656 57.84375 -49.703125 60.90625 -45.671875 C 63.96875 -41.648438 68.945312 -39.640625 75.84375 -39.640625 C 84.269531 -39.640625 94.613281 -43.851562 106.875 -52.28125 C 119.132812 -60.707031 131.96875 -71.816406 145.375 -85.609375 C 158.78125 -99.398438 171.992188 -115.007812 185.015625 -132.4375 C 198.035156 -149.863281 209.71875 -167.769531 220.0625 -186.15625 L 260.859375 -167.203125 L 199.953125 -14.9375 C 215.273438 -21.0625 231.265625 -28.429688 247.921875 -37.046875 C 264.585938 -45.671875 280.960938 -55.820312 297.046875 -67.5 C 313.140625 -79.1875 328.847656 -92.40625 344.171875 -107.15625 C 359.492188 -121.90625 373.859375 -138.28125 387.265625 -156.28125 L 418.296875 -126.984375 C 402.203125 -105.535156 385.15625 -86.382812 367.15625 -69.53125 C 349.15625 -52.675781 330.289062 -37.734375 310.5625 -24.703125 C 290.832031 -11.679688 270.144531 -0.191406 248.5 9.765625 C 226.863281 19.722656 203.976562 28.722656 179.84375 36.765625 C 161.070312 81.972656 139.8125 115.300781 116.0625 136.75 C 92.3125 158.195312 66.648438 168.921875 39.078125 168.921875 Z M 49.984375 129.28125 C 61.472656 129.28125 73.828125 122.957031 87.046875 110.3125 C 100.265625 97.675781 113.003906 77.566406 125.265625 49.984375 C 116.066406 54.203125 106.195312 58.128906 95.65625 61.765625 C 85.125 65.398438 75.265625 69.328125 66.078125 73.546875 C 52.671875 80.054688 43.570312 86.472656 38.78125 92.796875 C 34 99.117188 31.609375 106.109375 31.609375 113.765625 C 31.609375 118.359375 33.328125 122.09375 36.765625 124.96875 C 40.210938 127.84375 44.617188 129.28125 49.984375 129.28125 Z M 49.984375 129.28125 "/></g></g><g style="fill:#524c4c;fill-opacity:1;"><g transform="translate(454.499981, 601.363025)"><path style="stroke:none" d="M 29.15625 0 L 23.578125 0 L 21.296875 -5.5625 L 8.046875 -5.5625 L 5.765625 0 L 0.1875 0 L 12.171875 -28.8125 L 17.171875 -28.8125 Z M 14.484375 -21.3125 L 9.84375 -9.96875 L 19.5 -9.96875 L 14.84375 -21.3125 L 14.71875 -22.015625 L 14.65625 -22.015625 Z M 14.484375 -21.3125 "/></g></g><g style="fill:#524c4c;fill-opacity:1;"><g transform="translate(481.481699, 601.363025)"><path style="stroke:none" d="M 16.59375 0.609375 C 14.914062 0.609375 13.316406 0.359375 11.796875 -0.140625 C 10.285156 -0.648438 8.894531 -1.363281 7.625 -2.28125 C 6.363281 -3.195312 5.265625 -4.28125 4.328125 -5.53125 C 3.398438 -6.78125 2.679688 -8.15625 2.171875 -9.65625 C 1.671875 -11.164062 1.421875 -12.753906 1.421875 -14.421875 C 1.421875 -16.097656 1.671875 -17.691406 2.171875 -19.203125 C 2.679688 -20.710938 3.40625 -22.09375 4.34375 -23.34375 C 5.289062 -24.59375 6.394531 -25.675781 7.65625 -26.59375 C 8.925781 -27.507812 10.320312 -28.21875 11.84375 -28.71875 C 13.375 -29.21875 14.988281 -29.46875 16.6875 -29.46875 C 17.894531 -29.46875 19.113281 -29.320312 20.34375 -29.03125 C 21.570312 -28.75 22.742188 -28.320312 23.859375 -27.75 C 24.984375 -27.1875 26.007812 -26.492188 26.9375 -25.671875 C 27.875 -24.847656 28.671875 -23.898438 29.328125 -22.828125 C 29.984375 -21.765625 30.445312 -20.582031 30.71875 -19.28125 L 25.359375 -19.28125 C 24.609375 -20.96875 23.460938 -22.28125 21.921875 -23.21875 C 20.390625 -24.164062 18.601562 -24.640625 16.5625 -24.640625 C 15.207031 -24.640625 13.925781 -24.394531 12.71875 -23.90625 C 11.519531 -23.425781 10.46875 -22.734375 9.5625 -21.828125 C 8.664062 -20.921875 7.957031 -19.84375 7.4375 -18.59375 C 6.925781 -17.34375 6.671875 -15.953125 6.671875 -14.421875 C 6.671875 -12.847656 6.925781 -11.4375 7.4375 -10.1875 C 7.957031 -8.945312 8.664062 -7.878906 9.5625 -6.984375 C 10.46875 -6.097656 11.519531 -5.414062 12.71875 -4.9375 C 13.925781 -4.46875 15.207031 -4.234375 16.5625 -4.234375 C 18.28125 -4.234375 19.765625 -4.523438 21.015625 -5.109375 C 22.273438 -5.691406 23.296875 -6.5 24.078125 -7.53125 C 24.859375 -8.5625 25.382812 -9.75 25.65625 -11.09375 L 16.34375 -11.09375 L 16.34375 -15.5 L 31.375 -15.5 C 31.382812 -13.144531 31.066406 -10.984375 30.421875 -9.015625 C 29.773438 -7.046875 28.816406 -5.335938 27.546875 -3.890625 C 26.273438 -2.453125 24.722656 -1.34375 22.890625 -0.5625 C 21.054688 0.21875 18.957031 0.609375 16.59375 0.609375 Z M 16.59375 0.609375 "/></g></g><g style="fill:#524c4c;fill-opacity:1;"><g transform="translate(511.893398, 601.363025)"><path style="stroke:none" d="M 23.359375 0 L 3.4375 0 L 3.4375 -28.796875 L 23.15625 -28.796875 L 23.15625 -24.078125 L 8.703125 -24.078125 L 8.703125 -16.859375 L 21.1875 -16.859375 L 21.1875 -12.40625 L 8.703125 -12.40625 L 8.703125 -4.71875 L 23.359375 -4.71875 Z M 23.359375 0 "/></g></g><g style="fill:#524c4c;fill-opacity:1;"><g transform="translate(534.238289, 601.363025)"><path style="stroke:none" d="M 8.703125 0 L 3.4375 0 L 3.4375 -28.796875 L 7.953125 -28.796875 L 23.65625 -8.640625 L 23.65625 -28.796875 L 28.90625 -28.796875 L 28.90625 0 L 24.390625 0 L 8.703125 -20.140625 Z M 8.703125 0 "/></g></g><g style="fill:#524c4c;fill-opacity:1;"><g transform="translate(564.184188, 601.363025)"><path style="stroke:none" d="M 16.59375 0.609375 C 14.90625 0.609375 13.296875 0.359375 11.765625 -0.140625 C 10.242188 -0.640625 8.847656 -1.347656 7.578125 -2.265625 C 6.316406 -3.179688 5.222656 -4.265625 4.296875 -5.515625 C 3.378906 -6.773438 2.664062 -8.160156 2.15625 -9.671875 C 1.644531 -11.179688 1.390625 -12.769531 1.390625 -14.4375 C 1.390625 -16.113281 1.644531 -17.703125 2.15625 -19.203125 C 2.664062 -20.710938 3.378906 -22.09375 4.296875 -23.34375 C 5.222656 -24.59375 6.316406 -25.675781 7.578125 -26.59375 C 8.847656 -27.507812 10.242188 -28.21875 11.765625 -28.71875 C 13.296875 -29.21875 14.90625 -29.46875 16.59375 -29.46875 C 18.125 -29.46875 19.632812 -29.238281 21.125 -28.78125 C 22.625 -28.332031 24.019531 -27.644531 25.3125 -26.71875 C 26.613281 -25.800781 27.71875 -24.632812 28.625 -23.21875 C 29.53125 -21.8125 30.148438 -20.148438 30.484375 -18.234375 L 25.109375 -18.234375 C 24.722656 -19.710938 24.109375 -20.921875 23.265625 -21.859375 C 22.429688 -22.804688 21.425781 -23.503906 20.25 -23.953125 C 19.082031 -24.410156 17.816406 -24.640625 16.453125 -24.640625 C 15.097656 -24.640625 13.828125 -24.394531 12.640625 -23.90625 C 11.453125 -23.425781 10.410156 -22.734375 9.515625 -21.828125 C 8.617188 -20.921875 7.921875 -19.84375 7.421875 -18.59375 C 6.921875 -17.34375 6.671875 -15.953125 6.671875 -14.421875 C 6.671875 -12.847656 6.921875 -11.4375 7.421875 -10.1875 C 7.921875 -8.945312 8.617188 -7.878906 9.515625 -6.984375 C 10.410156 -6.097656 11.453125 -5.414062 12.640625 -4.9375 C 13.828125 -4.46875 15.097656 -4.234375 16.453125 -4.234375 C 17.816406 -4.234375 19.082031 -4.457031 20.25 -4.90625 C 21.414062 -5.363281 22.421875 -6.0625 23.265625 -7 C 24.109375 -7.945312 24.71875 -9.15625 25.09375 -10.625 L 30.484375 -10.625 C 30.148438 -8.707031 29.53125 -7.039062 28.625 -5.625 C 27.71875 -4.207031 26.625 -3.035156 25.34375 -2.109375 C 24.0625 -1.191406 22.664062 -0.507812 21.15625 -0.0625 C 19.65625 0.382812 18.132812 0.609375 16.59375 0.609375 Z M 16.59375 0.609375 "/></g></g><g style="fill:#524c4c;fill-opacity:1;"><g transform="translate(593.706633, 601.363025)"><path style="stroke:none" d="M 8.703125 0 L 3.4375 0 L 3.4375 -28.796875 L 8.703125 -28.796875 Z M 8.703125 0 "/></g></g><g style="fill:#524c4c;fill-opacity:1;"><g transform="translate(603.432579, 601.363025)"><path style="stroke:none" d="M 29.15625 0 L 23.578125 0 L 21.296875 -5.5625 L 8.046875 -5.5625 L 5.765625 0 L 0.1875 0 L 12.171875 -28.8125 L 17.171875 -28.8125 Z M 14.484375 -21.3125 L 9.84375 -9.96875 L 19.5 -9.96875 L 14.84375 -21.3125 L 14.71875 -22.015625 L 14.65625 -22.015625 Z M 14.484375 -21.3125 "/></g></g><g style="fill:#524c4c;fill-opacity:1;"><g transform="translate(630.431224, 601.363025)"><path style="stroke:none" d=""/></g></g></g></svg>