<svg xmlns="http://www.w3.org/2000/svg" xmlns:xlink="http://www.w3.org/1999/xlink" width="1200" zoomAndPan="magnify" viewBox="0 0 900 899.99999" height="1200" preserveAspectRatio="xMidYMid meet" version="1.2"><defs/><g id="ae30b46d48"><g style="fill:#222222;fill-opacity:1;"><g transform="translate(80.281693, 497.576879)"><path style="stroke:none" d="M 25.6875 0 L 10.125 0 L 10.125 -85.015625 L 25.6875 -85.015625 Z M 25.6875 0 "/></g></g><g style="fill:#222222;fill-opacity:1;"><g transform="translate(110.529489, 497.576879)"><path style="stroke:none" d="M 37.75 1.9375 C 33.457031 1.9375 29.476562 1.34375 25.8125 0.15625 C 22.144531 -1.03125 18.9375 -2.894531 16.1875 -5.4375 C 13.4375 -7.976562 11.300781 -11.269531 9.78125 -15.3125 C 8.257812 -19.351562 7.5 -24.226562 7.5 -29.9375 L 7.5 -64.265625 L 22.5 -64.265625 L 22.5 -30.375 C 22.5 -24.457031 23.769531 -19.9375 26.3125 -16.8125 C 28.851562 -13.6875 32.644531 -12.125 37.6875 -12.125 C 42.769531 -12.125 46.5625 -13.695312 49.0625 -16.84375 C 51.5625 -19.988281 52.8125 -24.5 52.8125 -30.375 L 52.8125 -64.265625 L 67.890625 -64.265625 L 67.890625 -29.9375 C 67.890625 -24.226562 67.125 -19.351562 65.59375 -15.3125 C 64.070312 -11.269531 61.9375 -7.976562 59.1875 -5.4375 C 56.4375 -2.894531 53.238281 -1.03125 49.59375 0.15625 C 45.945312 1.34375 42 1.9375 37.75 1.9375 Z M 37.75 1.9375 "/></g></g><g style="fill:#222222;fill-opacity:1;"><g transform="translate(180.405499, 497.576879)"><path style="stroke:none" d="M 24 21.9375 L 8.875 21.9375 L 8.875 -64.265625 L 23.25 -64.265625 L 23.25 -53.4375 C 25.582031 -57.3125 28.6875 -60.394531 32.5625 -62.6875 C 36.4375 -64.988281 40.6875 -66.140625 45.3125 -66.140625 C 49.894531 -66.140625 54.09375 -65.25 57.90625 -63.46875 C 61.71875 -61.695312 65.019531 -59.257812 67.8125 -56.15625 C 70.613281 -53.050781 72.785156 -49.445312 74.328125 -45.34375 C 75.867188 -41.238281 76.640625 -36.832031 76.640625 -32.125 C 76.640625 -27.414062 75.867188 -23 74.328125 -18.875 C 72.785156 -14.75 70.601562 -11.125 67.78125 -8 C 64.96875 -4.875 61.675781 -2.4375 57.90625 -0.6875 C 54.132812 1.0625 50 1.9375 45.5 1.9375 C 42.375 1.9375 39.414062 1.425781 36.625 0.40625 C 33.832031 -0.613281 31.332031 -2.050781 29.125 -3.90625 C 26.914062 -5.757812 25.101562 -7.914062 23.6875 -10.375 L 24 -2.9375 Z M 42.75 -12 C 46.164062 -12 49.300781 -12.8125 52.15625 -14.4375 C 55.007812 -16.0625 57.300781 -18.382812 59.03125 -21.40625 C 60.757812 -24.425781 61.625 -28 61.625 -32.125 C 61.625 -36.164062 60.769531 -39.6875 59.0625 -42.6875 C 57.351562 -45.6875 55.070312 -48.019531 52.21875 -49.6875 C 49.363281 -51.351562 46.1875 -52.1875 42.6875 -52.1875 C 40.0625 -52.1875 37.613281 -51.675781 35.34375 -50.65625 C 33.070312 -49.632812 31.070312 -48.207031 29.34375 -46.375 C 27.613281 -44.539062 26.257812 -42.414062 25.28125 -40 C 24.300781 -37.582031 23.8125 -34.957031 23.8125 -32.125 C 23.8125 -29.207031 24.3125 -26.519531 25.3125 -24.0625 C 26.3125 -21.601562 27.6875 -19.46875 29.4375 -17.65625 C 31.1875 -15.84375 33.207031 -14.445312 35.5 -13.46875 C 37.789062 -12.488281 40.207031 -12 42.75 -12 Z M 42.75 -12 "/></g></g><g style="fill:#222222;fill-opacity:1;"><g transform="translate(255.84446, 497.576879)"><path style="stroke:none" d="M 70.015625 -33.25 C 70.015625 -32.457031 69.992188 -31.707031 69.953125 -31 C 69.910156 -30.289062 69.828125 -29.332031 69.703125 -28.125 L 19.5 -28.125 C 20.039062 -24.625 21.15625 -21.644531 22.84375 -19.1875 C 24.53125 -16.726562 26.625 -14.84375 29.125 -13.53125 C 31.625 -12.21875 34.351562 -11.5625 37.3125 -11.5625 C 41.144531 -11.5625 44.25 -12.320312 46.625 -13.84375 C 49 -15.363281 50.726562 -17.476562 51.8125 -20.1875 L 68.328125 -20.1875 C 67.535156 -17.3125 66.226562 -14.539062 64.40625 -11.875 C 62.59375 -9.207031 60.375 -6.84375 57.75 -4.78125 C 55.125 -2.71875 52.113281 -1.082031 48.71875 0.125 C 45.320312 1.332031 41.625 1.9375 37.625 1.9375 C 32.789062 1.9375 28.34375 1.050781 24.28125 -0.71875 C 20.21875 -2.488281 16.695312 -4.9375 13.71875 -8.0625 C 10.738281 -11.1875 8.425781 -14.8125 6.78125 -18.9375 C 5.132812 -23.0625 4.3125 -27.457031 4.3125 -32.125 C 4.3125 -36.832031 5.132812 -41.238281 6.78125 -45.34375 C 8.425781 -49.445312 10.738281 -53.0625 13.71875 -56.1875 C 16.695312 -59.3125 20.21875 -61.757812 24.28125 -63.53125 C 28.34375 -65.3125 32.789062 -66.203125 37.625 -66.203125 C 42.457031 -66.203125 46.863281 -65.320312 50.84375 -63.5625 C 54.820312 -61.8125 58.238281 -59.40625 61.09375 -56.34375 C 63.957031 -53.28125 66.160156 -49.769531 67.703125 -45.8125 C 69.242188 -41.851562 70.015625 -37.664062 70.015625 -33.25 Z M 20.125 -39.8125 L 54.5625 -39.8125 C 54.351562 -42.226562 53.457031 -44.425781 51.875 -46.40625 C 50.289062 -48.382812 48.25 -49.976562 45.75 -51.1875 C 43.25 -52.394531 40.519531 -53 37.5625 -53 C 35.019531 -53 32.582031 -52.53125 30.25 -51.59375 C 27.914062 -50.65625 25.863281 -49.21875 24.09375 -47.28125 C 22.320312 -45.34375 21 -42.851562 20.125 -39.8125 Z M 20.125 -39.8125 "/></g></g><g style="fill:#222222;fill-opacity:1;"><g transform="translate(323.782812, 497.576879)"><path style="stroke:none" d="M 24 0 L 8.875 0 L 8.875 -64.265625 L 23.25 -64.265625 L 23.25 -54.25 C 24.5 -56.582031 26.207031 -58.644531 28.375 -60.4375 C 30.539062 -62.226562 33.0625 -63.632812 35.9375 -64.65625 C 38.8125 -65.6875 41.894531 -66.203125 45.1875 -66.203125 C 53.8125 -66.203125 60.269531 -63.457031 64.5625 -57.96875 C 68.863281 -52.488281 71.015625 -44.707031 71.015625 -34.625 L 71.015625 0 L 55.875 0 L 55.875 -34.3125 C 55.875 -40.6875 54.539062 -45.269531 51.875 -48.0625 C 49.207031 -50.851562 45.582031 -52.25 41 -52.25 C 38.039062 -52.25 35.269531 -51.5 32.6875 -50 C 30.101562 -48.5 28.007812 -46.3125 26.40625 -43.4375 C 24.800781 -40.5625 24 -37.019531 24 -32.8125 Z M 24 0 "/></g></g><g style="fill:#292929;fill-opacity:1;"><g transform="translate(521.799241, 492.184321)"><path style="stroke:none" d="M 11.03125 47.671875 C 6.164062 47.671875 2.4375 46.453125 -0.15625 44.015625 C -2.75 41.585938 -4.046875 38.265625 -4.046875 34.046875 C -4.046875 29.179688 -2.800781 25.207031 -0.3125 22.125 C 2.164062 19.050781 5.457031 16.378906 9.5625 14.109375 C 13.664062 11.835938 18.421875 9.78125 23.828125 7.9375 C 29.234375 6.101562 34.851562 4 40.6875 1.625 L 47.671875 -16.046875 C 42.804688 -10.316406 37.96875 -5.992188 33.15625 -3.078125 C 28.34375 -0.160156 23.503906 1.296875 18.640625 1.296875 C 13.890625 1.296875 10.023438 -0.109375 7.046875 -2.921875 C 4.078125 -5.734375 2.59375 -9.675781 2.59375 -14.75 C 2.59375 -18.644531 3.429688 -22.78125 5.109375 -27.15625 C 6.785156 -31.53125 9.023438 -35.851562 11.828125 -40.125 C 14.640625 -44.394531 17.910156 -48.472656 21.640625 -52.359375 C 25.367188 -56.253906 29.257812 -59.660156 33.3125 -62.578125 C 37.363281 -65.492188 41.5 -67.816406 45.71875 -69.546875 C 49.9375 -71.273438 53.9375 -72.140625 57.71875 -72.140625 C 61.820312 -72.140625 65.304688 -71.164062 68.171875 -69.21875 C 71.035156 -67.28125 73.441406 -64.90625 75.390625 -62.09375 L 64.203125 -56.09375 C 63.335938 -57.175781 62.28125 -58.066406 61.03125 -58.765625 C 59.789062 -59.472656 58.144531 -59.828125 56.09375 -59.828125 C 53.71875 -59.828125 51.070312 -59.097656 48.15625 -57.640625 C 45.238281 -56.179688 42.289062 -54.234375 39.3125 -51.796875 C 36.34375 -49.367188 33.453125 -46.613281 30.640625 -43.53125 C 27.828125 -40.445312 25.3125 -37.335938 23.09375 -34.203125 C 20.882812 -31.066406 19.128906 -28.015625 17.828125 -25.046875 C 16.535156 -22.078125 15.890625 -19.507812 15.890625 -17.34375 C 15.890625 -15.507812 16.320312 -14.023438 17.1875 -12.890625 C 18.050781 -11.753906 19.457031 -11.1875 21.40625 -11.1875 C 23.78125 -11.1875 26.695312 -12.375 30.15625 -14.75 C 33.613281 -17.125 37.234375 -20.257812 41.015625 -24.15625 C 44.796875 -28.050781 48.523438 -32.457031 52.203125 -37.375 C 55.878906 -42.289062 59.175781 -47.34375 62.09375 -52.53125 L 73.609375 -47.171875 L 56.421875 -4.21875 C 60.742188 -5.945312 65.253906 -8.023438 69.953125 -10.453125 C 74.660156 -12.890625 79.28125 -15.753906 83.8125 -19.046875 C 88.351562 -22.347656 92.785156 -26.078125 97.109375 -30.234375 C 101.429688 -34.398438 105.484375 -39.019531 109.265625 -44.09375 L 118.03125 -35.828125 C 113.488281 -29.773438 108.675781 -24.367188 103.59375 -19.609375 C 98.519531 -14.859375 93.195312 -10.644531 87.625 -6.96875 C 82.0625 -3.289062 76.222656 -0.0507812 70.109375 2.75 C 64.003906 5.5625 57.550781 8.101562 50.75 10.375 C 45.445312 23.125 39.445312 32.523438 32.75 38.578125 C 26.050781 44.640625 18.8125 47.671875 11.03125 47.671875 Z M 14.109375 36.484375 C 17.347656 36.484375 20.832031 34.695312 24.5625 31.125 C 28.289062 27.5625 31.882812 21.890625 35.34375 14.109375 C 32.75 15.296875 29.960938 16.398438 26.984375 17.421875 C 24.015625 18.453125 21.234375 19.5625 18.640625 20.75 C 14.859375 22.59375 12.289062 24.40625 10.9375 26.1875 C 9.59375 27.96875 8.921875 29.9375 8.921875 32.09375 C 8.921875 33.394531 9.40625 34.453125 10.375 35.265625 C 11.34375 36.078125 12.585938 36.484375 14.109375 36.484375 Z M 14.109375 36.484375 "/></g></g><g style="fill:#292929;fill-opacity:1;"><g transform="translate(398.41305, 498.558239)"><path style="stroke:none" d="M 43.0625 0 L 10.125 0 L 10.125 -85.015625 L 42.875 -85.015625 C 49.664062 -85.015625 55.832031 -84.003906 61.375 -81.984375 C 66.925781 -79.960938 71.691406 -77.078125 75.671875 -73.328125 C 79.648438 -69.578125 82.710938 -65.101562 84.859375 -59.90625 C 87.003906 -54.71875 88.078125 -48.9375 88.078125 -42.5625 C 88.078125 -36.1875 87.003906 -30.382812 84.859375 -25.15625 C 82.710938 -19.925781 79.660156 -15.4375 75.703125 -11.6875 C 71.742188 -7.9375 67 -5.050781 61.46875 -3.03125 C 55.945312 -1.007812 49.8125 0 43.0625 0 Z M 25.4375 -71.203125 L 25.4375 -13.875 L 42.5625 -13.875 C 48.769531 -13.875 54.101562 -15.03125 58.5625 -17.34375 C 63.03125 -19.65625 66.453125 -22.9375 68.828125 -27.1875 C 71.203125 -31.4375 72.390625 -36.476562 72.390625 -42.3125 C 72.390625 -48.101562 71.222656 -53.164062 68.890625 -57.5 C 66.554688 -61.84375 63.15625 -65.210938 58.6875 -67.609375 C 54.226562 -70.003906 48.8125 -71.203125 42.4375 -71.203125 Z M 25.4375 -71.203125 "/></g></g><g style="fill:#292929;fill-opacity:1;"><g transform="translate(485.165428, 498.558239)"><path style="stroke:none" d="M 16.3125 -74.265625 C 13.394531 -74.265625 11.113281 -75.109375 9.46875 -76.796875 C 7.820312 -78.484375 7 -80.535156 7 -82.953125 C 7 -85.285156 7.820312 -87.304688 9.46875 -89.015625 C 11.113281 -90.722656 13.414062 -91.578125 16.375 -91.578125 C 19.414062 -91.578125 21.757812 -90.722656 23.40625 -89.015625 C 25.050781 -87.304688 25.875 -85.285156 25.875 -82.953125 C 25.875 -80.535156 25.050781 -78.484375 23.40625 -76.796875 C 21.757812 -75.109375 19.394531 -74.265625 16.3125 -74.265625 Z M 24 0 L 8.875 0 L 8.875 -64.265625 L 24 -64.265625 Z M 24 0 "/></g></g><g style="fill:#292929;fill-opacity:1;"><g transform="translate(512.506187, 498.558239)"><path style="stroke:none" d=""/></g></g><g style="fill:#292929;fill-opacity:1;"><g transform="translate(538.191114, 498.558239)"><path style="stroke:none" d=""/></g></g><g style="fill:#292929;fill-opacity:1;"><g transform="translate(563.876041, 498.558239)"><path style="stroke:none" d=""/></g></g><g style="fill:#292929;fill-opacity:1;"><g transform="translate(589.560967, 498.558239)"><path style="stroke:none" d=""/></g></g><g style="fill:#292929;fill-opacity:1;"><g transform="translate(615.245894, 498.558239)"><path style="stroke:none" d=""/></g></g><g style="fill:#292929;fill-opacity:1;"><g transform="translate(640.940444, 498.558239)"><path style="stroke:none" d="M 16.3125 -74.265625 C 13.394531 -74.265625 11.113281 -75.109375 9.46875 -76.796875 C 7.820312 -78.484375 7 -80.535156 7 -82.953125 C 7 -85.285156 7.820312 -87.304688 9.46875 -89.015625 C 11.113281 -90.722656 13.414062 -91.578125 16.375 -91.578125 C 19.414062 -91.578125 21.757812 -90.722656 23.40625 -89.015625 C 25.050781 -87.304688 25.875 -85.285156 25.875 -82.953125 C 25.875 -80.535156 25.050781 -78.484375 23.40625 -76.796875 C 21.757812 -75.109375 19.394531 -74.265625 16.3125 -74.265625 Z M 24 0 L 8.875 0 L 8.875 -64.265625 L 24 -64.265625 Z M 24 0 "/></g></g><g style="fill:#292929;fill-opacity:1;"><g transform="translate(668.250502, 498.558239)"><path style="stroke:none" d="M 48.375 0 L 35.3125 0 C 33.394531 0 31.425781 -0.175781 29.40625 -0.53125 C 27.382812 -0.882812 25.457031 -1.539062 23.625 -2.5 C 21.789062 -3.457031 20.15625 -4.84375 18.71875 -6.65625 C 17.28125 -8.46875 16.132812 -10.820312 15.28125 -13.71875 C 14.425781 -16.613281 14 -20.1875 14 -24.4375 L 14 -51.25 L 0.6875 -51.25 L 0.6875 -64.265625 L 14 -64.265625 L 14 -83.078125 L 29.125 -83.203125 L 29.125 -64.265625 L 48.375 -64.265625 L 48.375 -51.25 L 29.125 -51.25 L 29.125 -23.75 C 29.125 -20.75 29.5625 -18.4375 30.4375 -16.8125 C 31.3125 -15.1875 32.46875 -14.070312 33.90625 -13.46875 C 35.34375 -12.863281 36.851562 -12.5625 38.4375 -12.5625 L 48.375 -12.5625 Z M 48.375 0 "/></g></g><g style="fill:#292929;fill-opacity:1;"><g transform="translate(714.499596, 498.558239)"><path style="stroke:none" d="M 34.5625 1.9375 C 30.226562 1.9375 26.21875 1.0625 22.53125 -0.6875 C 18.84375 -2.4375 15.632812 -4.875 12.90625 -8 C 10.175781 -11.125 8.0625 -14.75 6.5625 -18.875 C 5.0625 -23 4.3125 -27.414062 4.3125 -32.125 C 4.3125 -36.832031 5.070312 -41.238281 6.59375 -45.34375 C 8.113281 -49.445312 10.238281 -53.0625 12.96875 -56.1875 C 15.695312 -59.3125 18.894531 -61.757812 22.5625 -63.53125 C 26.226562 -65.3125 30.207031 -66.203125 34.5 -66.203125 C 39.75 -66.203125 44.414062 -65.0625 48.5 -62.78125 C 52.582031 -60.507812 55.644531 -57.375 57.6875 -53.375 L 57.6875 -64.265625 L 72.078125 -64.265625 L 72.078125 0 L 57.6875 0 L 57.6875 -10.8125 C 55.601562 -6.8125 52.53125 -3.6875 48.46875 -1.4375 C 44.40625 0.8125 39.769531 1.9375 34.5625 1.9375 Z M 38.1875 -12.0625 C 40.8125 -12.0625 43.269531 -12.570312 45.5625 -13.59375 C 47.851562 -14.613281 49.863281 -16.03125 51.59375 -17.84375 C 53.320312 -19.65625 54.664062 -21.78125 55.625 -24.21875 C 56.582031 -26.65625 57.0625 -29.289062 57.0625 -32.125 C 57.0625 -34.914062 56.570312 -37.53125 55.59375 -39.96875 C 54.613281 -42.40625 53.269531 -44.539062 51.5625 -46.375 C 49.851562 -48.207031 47.851562 -49.632812 45.5625 -50.65625 C 43.269531 -51.675781 40.8125 -52.1875 38.1875 -52.1875 C 34.726562 -52.1875 31.570312 -51.351562 28.71875 -49.6875 C 25.863281 -48.019531 23.582031 -45.6875 21.875 -42.6875 C 20.164062 -39.6875 19.3125 -36.164062 19.3125 -32.125 C 19.3125 -27.957031 20.175781 -24.375 21.90625 -21.375 C 23.632812 -18.375 25.9375 -16.070312 28.8125 -14.46875 C 31.6875 -12.863281 34.8125 -12.0625 38.1875 -12.0625 Z M 38.1875 -12.0625 "/></g></g><g style="fill:#292929;fill-opacity:1;"><g transform="translate(789.938557, 498.558239)"><path style="stroke:none" d="M 24 0 L 8.875 0 L 8.875 -88.078125 L 24 -88.078125 Z M 24 0 "/></g></g></g></svg>