<svg xmlns="http://www.w3.org/2000/svg" xmlns:xlink="http://www.w3.org/1999/xlink" width="800" zoomAndPan="magnify" viewBox="0 0 600 149.999998" height="200" preserveAspectRatio="xMidYMid meet" version="1.2"><defs/><g id="824d8901b9"><g style="fill:#524c4c;fill-opacity:1;"><g transform="translate(15.000004, 103.05207)"><path style="stroke:none" d="M 19.359375 0 L 7.625 0 L 7.625 -64.0625 L 19.359375 -64.0625 Z M 19.359375 0 "/></g></g><g style="fill:#524c4c;fill-opacity:1;"><g transform="translate(37.791908, 103.05207)"><path style="stroke:none" d="M 28.453125 1.453125 C 25.210938 1.453125 22.210938 1.003906 19.453125 0.109375 C 16.691406 -0.773438 14.273438 -2.175781 12.203125 -4.09375 C 10.128906 -6.007812 8.519531 -8.488281 7.375 -11.53125 C 6.226562 -14.582031 5.65625 -18.257812 5.65625 -22.5625 L 5.65625 -48.421875 L 16.953125 -48.421875 L 16.953125 -22.890625 C 16.953125 -18.429688 17.910156 -15.023438 19.828125 -12.671875 C 21.742188 -10.316406 24.601562 -9.140625 28.40625 -9.140625 C 32.238281 -9.140625 35.09375 -10.320312 36.96875 -12.6875 C 38.851562 -15.0625 39.796875 -18.460938 39.796875 -22.890625 L 39.796875 -48.421875 L 51.15625 -48.421875 L 51.15625 -22.5625 C 51.15625 -18.257812 50.582031 -14.582031 49.4375 -11.53125 C 48.289062 -8.488281 46.679688 -6.007812 44.609375 -4.09375 C 42.535156 -2.175781 40.125 -0.773438 37.375 0.109375 C 34.625 1.003906 31.648438 1.453125 28.453125 1.453125 Z M 28.453125 1.453125 "/></g></g><g style="fill:#524c4c;fill-opacity:1;"><g transform="translate(90.44392, 103.05207)"><path style="stroke:none" d="M 18.09375 16.53125 L 6.6875 16.53125 L 6.6875 -48.421875 L 17.515625 -48.421875 L 17.515625 -40.28125 C 19.273438 -43.195312 21.613281 -45.515625 24.53125 -47.234375 C 27.457031 -48.960938 30.664062 -49.828125 34.15625 -49.828125 C 37.601562 -49.828125 40.765625 -49.160156 43.640625 -47.828125 C 46.515625 -46.492188 49.003906 -44.65625 51.109375 -42.3125 C 53.210938 -39.976562 54.84375 -37.265625 56 -34.171875 C 57.164062 -31.078125 57.75 -27.757812 57.75 -24.21875 C 57.75 -20.664062 57.164062 -17.332031 56 -14.21875 C 54.84375 -11.113281 53.203125 -8.382812 51.078125 -6.03125 C 48.960938 -3.675781 46.484375 -1.835938 43.640625 -0.515625 C 40.796875 0.796875 37.679688 1.453125 34.296875 1.453125 C 31.941406 1.453125 29.710938 1.066406 27.609375 0.296875 C 25.503906 -0.460938 23.617188 -1.539062 21.953125 -2.9375 C 20.285156 -4.34375 18.921875 -5.96875 17.859375 -7.8125 L 18.09375 -2.21875 Z M 32.21875 -9.046875 C 34.789062 -9.046875 37.148438 -9.65625 39.296875 -10.875 C 41.453125 -12.101562 43.179688 -13.851562 44.484375 -16.125 C 45.785156 -18.40625 46.4375 -21.101562 46.4375 -24.21875 C 46.4375 -27.257812 45.789062 -29.910156 44.5 -32.171875 C 43.21875 -34.429688 41.5 -36.1875 39.34375 -37.4375 C 37.195312 -38.695312 34.804688 -39.328125 32.171875 -39.328125 C 30.191406 -39.328125 28.34375 -38.941406 26.625 -38.171875 C 24.914062 -37.410156 23.410156 -36.335938 22.109375 -34.953125 C 20.804688 -33.566406 19.785156 -31.960938 19.046875 -30.140625 C 18.316406 -28.328125 17.953125 -26.351562 17.953125 -24.21875 C 17.953125 -22.019531 18.328125 -19.992188 19.078125 -18.140625 C 19.828125 -16.285156 20.863281 -14.675781 22.1875 -13.3125 C 23.507812 -11.945312 25.03125 -10.894531 26.75 -10.15625 C 28.476562 -9.414062 30.300781 -9.046875 32.21875 -9.046875 Z M 32.21875 -9.046875 "/></g></g><g style="fill:#524c4c;fill-opacity:1;"><g transform="translate(147.287649, 103.05207)"><path style="stroke:none" d="M 52.75 -25.0625 C 52.75 -24.46875 52.734375 -23.898438 52.703125 -23.359375 C 52.671875 -22.828125 52.609375 -22.109375 52.515625 -21.203125 L 14.703125 -21.203125 C 15.109375 -18.554688 15.945312 -16.304688 17.21875 -14.453125 C 18.488281 -12.609375 20.066406 -11.191406 21.953125 -10.203125 C 23.835938 -9.210938 25.894531 -8.71875 28.125 -8.71875 C 31.007812 -8.71875 33.347656 -9.289062 35.140625 -10.4375 C 36.929688 -11.582031 38.234375 -13.175781 39.046875 -15.21875 L 51.484375 -15.21875 C 50.890625 -13.050781 49.90625 -10.960938 48.53125 -8.953125 C 47.164062 -6.941406 45.492188 -5.15625 43.515625 -3.59375 C 41.546875 -2.039062 39.28125 -0.8125 36.71875 0.09375 C 34.15625 1 31.367188 1.453125 28.359375 1.453125 C 24.710938 1.453125 21.359375 0.785156 18.296875 -0.546875 C 15.234375 -1.878906 12.578125 -3.722656 10.328125 -6.078125 C 8.085938 -8.429688 6.347656 -11.160156 5.109375 -14.265625 C 3.867188 -17.378906 3.25 -20.695312 3.25 -24.21875 C 3.25 -27.757812 3.867188 -31.078125 5.109375 -34.171875 C 6.347656 -37.265625 8.085938 -39.988281 10.328125 -42.34375 C 12.578125 -44.695312 15.234375 -46.539062 18.296875 -47.875 C 21.359375 -49.21875 24.710938 -49.890625 28.359375 -49.890625 C 32.003906 -49.890625 35.320312 -49.226562 38.3125 -47.90625 C 41.3125 -46.582031 43.882812 -44.765625 46.03125 -42.453125 C 48.1875 -40.148438 49.84375 -37.503906 51 -34.515625 C 52.164062 -31.535156 52.75 -28.382812 52.75 -25.0625 Z M 15.171875 -30 L 41.125 -30 C 40.96875 -31.820312 40.289062 -33.476562 39.09375 -34.96875 C 37.90625 -36.46875 36.367188 -37.671875 34.484375 -38.578125 C 32.597656 -39.484375 30.539062 -39.9375 28.3125 -39.9375 C 26.394531 -39.9375 24.554688 -39.582031 22.796875 -38.875 C 21.035156 -38.175781 19.488281 -37.09375 18.15625 -35.625 C 16.820312 -34.164062 15.828125 -32.289062 15.171875 -30 Z M 15.171875 -30 "/></g></g><g style="fill:#524c4c;fill-opacity:1;"><g transform="translate(198.479623, 103.05207)"><path style="stroke:none" d="M 18.09375 0 L 6.6875 0 L 6.6875 -48.421875 L 17.515625 -48.421875 L 17.515625 -40.890625 C 18.460938 -42.648438 19.75 -44.203125 21.375 -45.546875 C 23.007812 -46.898438 24.910156 -47.960938 27.078125 -48.734375 C 29.242188 -49.503906 31.570312 -49.890625 34.0625 -49.890625 C 40.5625 -49.890625 45.425781 -47.820312 48.65625 -43.6875 C 51.894531 -39.5625 53.515625 -33.695312 53.515625 -26.09375 L 53.515625 0 L 42.109375 0 L 42.109375 -25.859375 C 42.109375 -30.660156 41.101562 -34.113281 39.09375 -36.21875 C 37.082031 -38.320312 34.351562 -39.375 30.90625 -39.375 C 28.675781 -39.375 26.585938 -38.804688 24.640625 -37.671875 C 22.691406 -36.546875 21.113281 -34.898438 19.90625 -32.734375 C 18.695312 -30.566406 18.09375 -27.898438 18.09375 -24.734375 Z M 18.09375 0 "/></g></g><g style="fill:#524c4c;fill-opacity:1;"><g transform="translate(347.686274, 99.513976)"><path style="stroke:none" d="M 8.3125 35.921875 C 4.644531 35.921875 1.835938 35.003906 -0.109375 33.171875 C -2.066406 31.335938 -3.046875 28.832031 -3.046875 25.65625 C -3.046875 21.988281 -2.109375 18.992188 -0.234375 16.671875 C 1.628906 14.347656 4.109375 12.332031 7.203125 10.625 C 10.296875 8.914062 13.878906 7.367188 17.953125 5.984375 C 22.023438 4.597656 26.265625 3.007812 30.671875 1.21875 L 35.921875 -12.09375 C 32.253906 -7.78125 28.609375 -4.519531 24.984375 -2.3125 C 21.359375 -0.113281 17.710938 0.984375 14.046875 0.984375 C 10.460938 0.984375 7.550781 -0.0703125 5.3125 -2.1875 C 3.070312 -4.3125 1.953125 -7.289062 1.953125 -11.125 C 1.953125 -14.050781 2.582031 -17.160156 3.84375 -20.453125 C 5.101562 -23.753906 6.789062 -27.015625 8.90625 -30.234375 C 11.03125 -33.453125 13.5 -36.523438 16.3125 -39.453125 C 19.125 -42.390625 22.054688 -44.957031 25.109375 -47.15625 C 28.160156 -49.351562 31.273438 -51.101562 34.453125 -52.40625 C 37.628906 -53.707031 40.644531 -54.359375 43.5 -54.359375 C 46.59375 -54.359375 49.21875 -53.625 51.375 -52.15625 C 53.53125 -50.695312 55.34375 -48.910156 56.8125 -46.796875 L 48.375 -42.265625 C 47.726562 -43.085938 46.9375 -43.757812 46 -44.28125 C 45.0625 -44.8125 43.816406 -45.078125 42.265625 -45.078125 C 40.472656 -45.078125 38.476562 -44.523438 36.28125 -43.421875 C 34.082031 -42.328125 31.863281 -40.863281 29.625 -39.03125 C 27.382812 -37.195312 25.203125 -35.117188 23.078125 -32.796875 C 20.960938 -30.484375 19.070312 -28.144531 17.40625 -25.78125 C 15.738281 -23.414062 14.414062 -21.113281 13.4375 -18.875 C 12.457031 -16.632812 11.96875 -14.703125 11.96875 -13.078125 C 11.96875 -11.691406 12.289062 -10.570312 12.9375 -9.71875 C 13.59375 -8.863281 14.65625 -8.4375 16.125 -8.4375 C 17.914062 -8.4375 20.113281 -9.332031 22.71875 -11.125 C 25.332031 -12.914062 28.0625 -15.273438 30.90625 -18.203125 C 33.757812 -21.140625 36.570312 -24.457031 39.34375 -28.15625 C 42.113281 -31.863281 44.597656 -35.671875 46.796875 -39.578125 L 55.46875 -35.546875 L 42.515625 -3.171875 C 45.773438 -4.472656 49.175781 -6.039062 52.71875 -7.875 C 56.257812 -9.707031 59.738281 -11.863281 63.15625 -14.34375 C 66.582031 -16.832031 69.921875 -19.644531 73.171875 -22.78125 C 76.429688 -25.914062 79.488281 -29.398438 82.34375 -33.234375 L 88.9375 -27 C 85.519531 -22.4375 81.894531 -18.363281 78.0625 -14.78125 C 74.238281 -11.195312 70.226562 -8.019531 66.03125 -5.25 C 61.832031 -2.476562 57.429688 -0.0351562 52.828125 2.078125 C 48.234375 4.191406 43.367188 6.101562 38.234375 7.8125 C 34.242188 17.425781 29.722656 24.515625 24.671875 29.078125 C 19.628906 33.640625 14.175781 35.921875 8.3125 35.921875 Z M 10.625 27.484375 C 13.070312 27.484375 15.695312 26.140625 18.5 23.453125 C 21.3125 20.765625 24.023438 16.488281 26.640625 10.625 C 24.679688 11.519531 22.582031 12.351562 20.34375 13.125 C 18.101562 13.90625 16.003906 14.742188 14.046875 15.640625 C 11.203125 17.023438 9.269531 18.390625 8.25 19.734375 C 7.226562 21.078125 6.71875 22.5625 6.71875 24.1875 C 6.71875 25.164062 7.082031 25.957031 7.8125 26.5625 C 8.550781 27.175781 9.488281 27.484375 10.625 27.484375 Z M 10.625 27.484375 "/></g></g><g style="fill:#524c4c;fill-opacity:1;"><g transform="translate(254.713994, 103.791531)"><path style="stroke:none" d="M 32.453125 0 L 7.625 0 L 7.625 -64.0625 L 32.3125 -64.0625 C 37.425781 -64.0625 42.070312 -63.300781 46.25 -61.78125 C 50.425781 -60.257812 54.015625 -58.082031 57.015625 -55.25 C 60.015625 -52.425781 62.320312 -49.054688 63.9375 -45.140625 C 65.5625 -41.234375 66.375 -36.878906 66.375 -32.078125 C 66.375 -27.273438 65.5625 -22.898438 63.9375 -18.953125 C 62.320312 -15.015625 60.019531 -11.628906 57.03125 -8.796875 C 54.050781 -5.972656 50.476562 -3.800781 46.3125 -2.28125 C 42.15625 -0.757812 37.535156 0 32.453125 0 Z M 19.171875 -53.65625 L 19.171875 -10.453125 L 32.078125 -10.453125 C 36.753906 -10.453125 40.769531 -11.320312 44.125 -13.0625 C 47.488281 -14.8125 50.066406 -17.285156 51.859375 -20.484375 C 53.648438 -23.691406 54.546875 -27.492188 54.546875 -31.890625 C 54.546875 -36.253906 53.664062 -40.066406 51.90625 -43.328125 C 50.144531 -46.597656 47.582031 -49.132812 44.21875 -50.9375 C 40.863281 -52.75 36.785156 -53.65625 31.984375 -53.65625 Z M 19.171875 -53.65625 "/></g></g><g style="fill:#524c4c;fill-opacity:1;"><g transform="translate(320.082455, 103.791531)"><path style="stroke:none" d="M 12.296875 -55.953125 C 10.097656 -55.953125 8.378906 -56.585938 7.140625 -57.859375 C 5.898438 -59.140625 5.28125 -60.6875 5.28125 -62.5 C 5.28125 -64.257812 5.898438 -65.78125 7.140625 -67.0625 C 8.378906 -68.351562 10.113281 -69 12.34375 -69 C 14.632812 -69 16.398438 -68.351562 17.640625 -67.0625 C 18.878906 -65.78125 19.5 -64.257812 19.5 -62.5 C 19.5 -60.6875 18.878906 -59.140625 17.640625 -57.859375 C 16.398438 -56.585938 14.617188 -55.953125 12.296875 -55.953125 Z M 18.09375 0 L 6.6875 0 L 6.6875 -48.421875 L 18.09375 -48.421875 Z M 18.09375 0 "/></g></g><g style="fill:#524c4c;fill-opacity:1;"><g transform="translate(340.683888, 103.791531)"><path style="stroke:none" d=""/></g></g><g style="fill:#524c4c;fill-opacity:1;"><g transform="translate(360.037641, 103.791531)"><path style="stroke:none" d=""/></g></g><g style="fill:#524c4c;fill-opacity:1;"><g transform="translate(379.391395, 103.791531)"><path style="stroke:none" d=""/></g></g><g style="fill:#524c4c;fill-opacity:1;"><g transform="translate(398.745148, 103.791531)"><path style="stroke:none" d=""/></g></g><g style="fill:#524c4c;fill-opacity:1;"><g transform="translate(418.098901, 103.791531)"><path style="stroke:none" d=""/></g></g><g style="fill:#524c4c;fill-opacity:1;"><g transform="translate(437.459906, 103.791531)"><path style="stroke:none" d="M 12.296875 -55.953125 C 10.097656 -55.953125 8.378906 -56.585938 7.140625 -57.859375 C 5.898438 -59.140625 5.28125 -60.6875 5.28125 -62.5 C 5.28125 -64.257812 5.898438 -65.78125 7.140625 -67.0625 C 8.378906 -68.351562 10.113281 -69 12.34375 -69 C 14.632812 -69 16.398438 -68.351562 17.640625 -67.0625 C 18.878906 -65.78125 19.5 -64.257812 19.5 -62.5 C 19.5 -60.6875 18.878906 -59.140625 17.640625 -57.859375 C 16.398438 -56.585938 14.617188 -55.953125 12.296875 -55.953125 Z M 18.09375 0 L 6.6875 0 L 6.6875 -48.421875 L 18.09375 -48.421875 Z M 18.09375 0 "/></g></g><g style="fill:#524c4c;fill-opacity:1;"><g transform="translate(458.038206, 103.791531)"><path style="stroke:none" d="M 36.453125 0 L 26.609375 0 C 25.171875 0 23.6875 -0.128906 22.15625 -0.390625 C 20.632812 -0.660156 19.179688 -1.15625 17.796875 -1.875 C 16.421875 -2.601562 15.191406 -3.648438 14.109375 -5.015625 C 13.023438 -6.378906 12.160156 -8.148438 11.515625 -10.328125 C 10.867188 -12.515625 10.546875 -15.210938 10.546875 -18.421875 L 10.546875 -38.625 L 0.515625 -38.625 L 0.515625 -48.421875 L 10.546875 -48.421875 L 10.546875 -62.59375 L 21.953125 -62.6875 L 21.953125 -48.421875 L 36.453125 -48.421875 L 36.453125 -38.625 L 21.953125 -38.625 L 21.953125 -17.90625 C 21.953125 -15.644531 22.28125 -13.898438 22.9375 -12.671875 C 23.59375 -11.441406 24.460938 -10.597656 25.546875 -10.140625 C 26.628906 -9.691406 27.769531 -9.46875 28.96875 -9.46875 L 36.453125 -9.46875 Z M 36.453125 0 "/></g></g><g style="fill:#524c4c;fill-opacity:1;"><g transform="translate(492.887188, 103.791531)"><path style="stroke:none" d="M 26.046875 1.453125 C 22.785156 1.453125 19.765625 0.796875 16.984375 -0.515625 C 14.203125 -1.835938 11.78125 -3.675781 9.71875 -6.03125 C 7.664062 -8.382812 6.070312 -11.113281 4.9375 -14.21875 C 3.8125 -17.332031 3.25 -20.664062 3.25 -24.21875 C 3.25 -27.757812 3.820312 -31.078125 4.96875 -34.171875 C 6.113281 -37.265625 7.710938 -39.988281 9.765625 -42.34375 C 11.828125 -44.695312 14.238281 -46.539062 17 -47.875 C 19.769531 -49.21875 22.769531 -49.890625 26 -49.890625 C 29.957031 -49.890625 33.472656 -49.03125 36.546875 -47.3125 C 39.628906 -45.601562 41.941406 -43.242188 43.484375 -40.234375 L 43.484375 -48.421875 L 54.3125 -48.421875 L 54.3125 0 L 43.484375 0 L 43.484375 -8.15625 C 41.910156 -5.132812 39.59375 -2.773438 36.53125 -1.078125 C 33.46875 0.609375 29.972656 1.453125 26.046875 1.453125 Z M 28.78125 -9.09375 C 30.757812 -9.09375 32.609375 -9.476562 34.328125 -10.25 C 36.054688 -11.019531 37.570312 -12.085938 38.875 -13.453125 C 40.1875 -14.816406 41.203125 -16.414062 41.921875 -18.25 C 42.640625 -20.09375 43 -22.082031 43 -24.21875 C 43 -26.320312 42.628906 -28.289062 41.890625 -30.125 C 41.160156 -31.957031 40.148438 -33.566406 38.859375 -34.953125 C 37.566406 -36.335938 36.054688 -37.410156 34.328125 -38.171875 C 32.609375 -38.941406 30.757812 -39.328125 28.78125 -39.328125 C 26.175781 -39.328125 23.796875 -38.695312 21.640625 -37.4375 C 19.492188 -36.1875 17.773438 -34.429688 16.484375 -32.171875 C 15.203125 -29.910156 14.5625 -27.257812 14.5625 -24.21875 C 14.5625 -21.070312 15.210938 -18.367188 16.515625 -16.109375 C 17.816406 -13.847656 19.550781 -12.113281 21.71875 -10.90625 C 23.882812 -9.695312 26.238281 -9.09375 28.78125 -9.09375 Z M 28.78125 -9.09375 "/></g></g><g style="fill:#524c4c;fill-opacity:1;"><g transform="translate(549.730917, 103.791531)"><path style="stroke:none" d="M 18.09375 0 L 6.6875 0 L 6.6875 -66.375 L 18.09375 -66.375 Z M 18.09375 0 "/></g></g></g></svg>